<svg preserveAspectRatio="none" width="100%" height="100%" overflow="visible" style="display: block;" viewBox="0 0 86.9956 106" fill="none" xmlns="http://www.w3.org/2000/svg">
<g id="Vector">
<mask id="path-1-outside-1_0_4" maskUnits="userSpaceOnUse" x="-0.00437117" y="-0.998892" width="87" height="107" fill="black">
<rect fill="white" x="-0.00437117" y="-0.998892" width="87" height="107"/>
<path d="M49.9013 10.8157C46.4728 9.02205 47.8877 4.51931 51.3801 5.04323C52.2118 5.16587 52.9548 5.62806 53.4303 6.31892C54.7211 8.17014 53.6551 9.86572 51.9491 10.8873L51.9622 40.8535C54.0124 41.1124 55.6592 42.2927 55.9479 44.4868C56.2863 47.0605 53.344 48.9944 51.9444 50.8903C51.9574 54.8186 52.2023 90.6737 51.7646 91.5149C51.6084 91.813 51.4605 91.8707 51.1553 91.9826C49.3594 91.7894 49.9178 88.7639 49.919 87.3466L49.9273 79.7441C49.9356 70.961 50.0586 61.8001 49.9036 53.0457C45.5204 58.3033 43.5328 58.5448 39.178 52.9107C38.3522 51.8413 37.2496 50.6184 36.3516 49.5884C36.3469 53.2873 35.7778 57.5917 35.6134 61.374C37.1727 61.0482 38.8846 61.0215 40.4427 60.746C43.0679 60.282 46.022 61.3505 46.1214 64.4084C46.2681 68.9047 46.1214 73.5223 46.1794 78.031C46.1936 79.1668 46.1959 80.3685 46.0244 81.4948C45.4742 84.3883 41.511 85.4192 39.4229 83.4729C37.6601 81.8306 38.0754 79.1774 38.0766 76.9566L38.0624 69.2426C34.6842 69.6275 31.3024 69.9833 27.9177 70.3107C27.936 71.5206 27.9372 72.7459 27.9312 73.9582C27.8925 81.7893 28.0474 89.6346 27.8687 97.4621C27.8579 97.9299 27.6682 98.4153 27.4821 98.8394L26.9314 99.6629C24.5749 102.109 20.2979 101.073 19.89 97.6047C19.6842 95.8552 19.7852 93.7628 19.7858 91.9767L19.7909 48.7427L12.3405 39.7329C11.6902 38.9518 8.21116 34.9442 7.9943 34.2569C7.28931 31.503 6.5997 28.5641 6.14304 25.7421C5.63681 22.6149 3.42803 17.6624 6.95746 15.6781C8.55981 14.7773 11.4324 15.2815 12.1925 16.9844C13.5971 20.1308 13.788 24.1146 14.6368 27.4726C14.8287 28.235 15.1033 30.2261 15.4701 30.734C17.5213 33.5754 19.9449 36.2587 22.187 38.9751C24.9883 38.9 27.9277 38.9691 30.7352 38.9657C32.7155 38.9634 36.9526 38.5648 38.3983 39.8333C40.6521 41.8113 42.7567 44.6287 44.7325 46.9408C46.1308 45.5038 48.4449 42.4832 49.8965 41.4469C50.0279 31.3799 49.9782 20.8934 49.9013 10.8157ZM21.9287 97.7319C22.3813 98.3811 22.8442 98.8818 23.6643 99.0149C24.1468 99.0927 24.603 98.9772 24.9962 98.6898C25.5182 98.3092 25.8431 97.7496 25.9 97.1111C26.2299 93.4164 25.3954 70.1368 26.2237 68.7482C26.6151 68.5536 26.9986 68.4497 27.4289 68.375C28.8427 68.1293 38.6953 66.9953 39.3732 67.256C39.6678 67.3694 39.8227 67.5008 39.9434 67.7984C40.3811 68.8813 40.083 79.122 40.1315 81.1778C40.5764 81.8423 40.9561 82.3348 41.8008 82.4986C42.306 82.5999 42.8313 82.4785 43.2406 82.1663C44.0936 81.5219 44.1587 80.7219 44.1587 79.7417L44.1622 69.8255C44.167 68.0287 44.2486 66.1104 44.064 64.3237C43.9741 63.4578 43.3246 63.0567 42.6053 62.6847C41.0165 62.7332 34.5042 63.7931 33.7285 63.0888C33.5713 62.7035 33.505 62.3699 33.5071 61.9519C33.5147 60.4031 34.4515 47.2516 34.7572 46.6109C34.8927 46.327 35.0148 46.261 35.2928 46.1298C37.1266 46.1814 41.5216 53.1939 43.3081 54.4404C44.665 55.5435 45.6777 54.88 46.7106 53.6694C48.8649 51.1275 51.2228 48.7772 53.3239 46.1976C54.8583 44.3145 52.7158 41.6231 50.3378 43.7101C49.1441 44.7574 45.5015 50.3397 44.1752 49.2428C41.7204 47.212 39.43 42.7794 36.5303 41.1441C31.6216 40.6862 26.4072 41.2128 21.5032 41.001C19.6789 39.8424 15.5653 33.8905 13.7367 31.9196C12.9369 31.0576 11.9705 23.5312 11.5178 22.076C11.2541 21.2283 11.1261 19.4758 10.735 18.565C10.4193 17.5998 9.62622 17.2508 8.67456 17.1595C8.00116 17.3998 7.42915 17.6642 7.10996 18.3408C6.89145 18.8039 6.98527 19.3648 7.04619 19.8564C7.26944 21.6574 7.75638 23.4638 8.11083 25.2468C8.63611 27.8886 9.06024 30.5974 9.77635 33.1913C10.1222 34.4439 20.0408 45.4707 21.5272 47.7485C21.5534 47.7886 21.5816 47.8272 21.6072 47.8675C22.4205 49.1496 21.4417 92.2512 21.9287 97.7319ZM51.4061 8.85228C51.8853 8.61053 52.0817 8.02982 51.8451 7.5489C51.6096 7.06787 51.0287 6.86499 50.5425 7.09332C50.2219 7.244 50.0078 7.55479 49.9817 7.90694C49.9557 8.25897 50.1213 8.5978 50.4171 8.79361C50.7117 8.9893 51.0902 9.01181 51.4061 8.85228Z"/>
<path d="M21.9287 97.7319C22.3813 98.3811 22.8442 98.8818 23.6643 99.0149C24.1468 99.0927 24.603 98.9772 24.9962 98.6898C25.5182 98.3092 25.8431 97.7496 25.9 97.1111C26.2299 93.4164 25.3954 70.1368 26.2237 68.7482C26.6151 68.5536 26.9986 68.4497 27.4289 68.375C28.8427 68.1293 38.6953 66.9953 39.3732 67.256C39.6678 67.3694 39.8227 67.5008 39.9434 67.7984C40.3811 68.8813 40.083 79.122 40.1315 81.1778C40.5764 81.8423 40.9561 82.3348 41.8008 82.4986C42.306 82.5999 42.8313 82.4785 43.2406 82.1663C44.0936 81.5219 44.1587 80.7219 44.1587 79.7417L44.1622 69.8255C44.167 68.0287 44.2486 66.1104 44.064 64.3237C43.9741 63.4578 43.3246 63.0567 42.6053 62.6847C41.0165 62.7332 34.5042 63.7931 33.7285 63.0888C33.5713 62.7035 33.505 62.3699 33.5071 61.9519C33.5147 60.4031 34.4515 47.2516 34.7572 46.6109C34.8927 46.327 35.0148 46.261 35.2928 46.1298C37.1266 46.1814 41.5216 53.1939 43.3081 54.4404C44.665 55.5435 45.6777 54.88 46.7106 53.6694C48.8649 51.1275 51.2228 48.7772 53.3239 46.1976C54.8583 44.3145 52.7158 41.6231 50.3378 43.7101C49.1441 44.7574 45.5015 50.3397 44.1752 49.2428C41.7204 47.212 39.43 42.7794 36.5303 41.1441C31.6216 40.6862 26.4072 41.2128 21.5032 41.001C19.6789 39.8424 15.5653 33.8905 13.7367 31.9196C12.9369 31.0576 11.9705 23.5312 11.5178 22.076C11.2541 21.2283 11.1261 19.4758 10.735 18.565C10.4193 17.5998 9.62622 17.2508 8.67456 17.1595C8.00116 17.3998 7.42915 17.6642 7.10996 18.3408C6.89145 18.8039 6.98527 19.3648 7.04619 19.8564C7.26944 21.6574 7.75638 23.4638 8.11083 25.2468C8.63611 27.8886 9.06024 30.5974 9.77635 33.1913C10.1222 34.4439 20.0408 45.4707 21.5272 47.7485C21.5534 47.7886 21.5816 47.8272 21.6072 47.8675C22.4205 49.1496 21.4417 92.2512 21.9287 97.7319Z"/>
<path d="M51.4061 8.85228C51.8853 8.61053 52.0817 8.02982 51.8451 7.5489C51.6096 7.06787 51.0287 6.86499 50.5425 7.09332C50.2219 7.244 50.0078 7.55479 49.9817 7.90694C49.9557 8.25897 50.1213 8.5978 50.4171 8.79361C50.7117 8.9893 51.0902 9.01181 51.4061 8.85228Z"/>
<path d="M73.8406 9.30997C76.0233 9.2209 81.0892 10.5326 81.9954 12.594C82.0262 13.9649 78.4309 18.3176 77.4264 19.8772C78.2972 22.1041 79.3241 24.2723 80.2256 26.5019C80.6101 27.4499 82.0487 30.0096 81.5364 30.9117C80.9898 31.8765 78.5492 30.3972 77.7246 30.0571C77.1106 29.8084 76.4753 29.6138 75.8281 29.4756C72.6812 28.8042 68.9285 30.3154 65.8963 31.3027C61.8467 32.5935 57.3297 32.8726 53.7344 30.2102C53.5167 27.8118 53.6705 25.0593 53.6528 22.6229C53.6267 19.0717 53.6528 15.5191 53.6528 11.9661C53.6528 11.6025 53.7332 10.7437 54.4005 10.6569C55.2049 10.8399 57.1665 11.6438 57.9106 11.8526C58.8097 12.0995 59.7384 12.2209 60.6707 12.2134C64.7156 12.2065 69.0835 9.58707 73.8406 9.30997ZM55.6415 13.2606C55.9124 18.3152 55.6226 23.91 55.7255 29.0271C58.8854 30.5671 61.461 30.5364 64.8268 29.5084C70.0086 27.9875 73.3662 26.2243 78.7077 28.2162C78.0251 26.5444 77.32 24.8815 76.5947 23.2278C75.2898 20.2486 74.5847 20.01 76.7746 17.1967C77.7482 15.9468 78.7952 14.3938 79.7961 13.1059C77.85 11.9335 75.989 11.207 73.6726 11.31C67.4544 11.9054 62.146 16.1451 55.6415 13.2606Z"/>
<path d="M55.6415 13.2606C55.9124 18.3152 55.6226 23.91 55.7255 29.0271C58.8854 30.5671 61.461 30.5364 64.8268 29.5084C70.0086 27.9875 73.3662 26.2243 78.7077 28.2162C78.0251 26.5444 77.32 24.8815 76.5947 23.2278C75.2898 20.2486 74.5847 20.01 76.7746 17.1967C77.7482 15.9468 78.7952 14.3938 79.7961 13.1059C77.85 11.9335 75.989 11.207 73.6726 11.31C67.4544 11.9054 62.146 16.1451 55.6415 13.2606Z"/>
<path d="M28.021 22.4104C32.3012 21.8323 36.2416 24.8188 36.8225 29.0813C37.4034 33.3435 34.4041 37.2677 30.124 37.8462C25.8435 38.4247 21.9028 35.438 21.322 31.1755C20.7412 26.9129 23.7405 22.9885 28.021 22.4104ZM30.1182 35.794C33.242 35.2155 35.3117 32.2361 34.7547 29.1211C34.1973 26.0062 31.2208 23.9223 28.0888 24.4541C24.9235 24.9917 22.8038 27.9941 23.3672 31.1421C23.9305 34.2902 26.9613 36.3785 30.1182 35.794Z"/>
<path d="M30.1182 35.794C33.242 35.2155 35.3117 32.2361 34.7547 29.1211C34.1973 26.0062 31.2208 23.9223 28.0888 24.4541C24.9235 24.9917 22.8038 27.9941 23.3672 31.1421C23.9305 34.2902 26.9613 36.3785 30.1182 35.794Z"/>
</mask>
<path d="M49.9013 10.8157C46.4728 9.02205 47.8877 4.51931 51.3801 5.04323C52.2118 5.16587 52.9548 5.62806 53.4303 6.31892C54.7211 8.17014 53.6551 9.86572 51.9491 10.8873L51.9622 40.8535C54.0124 41.1124 55.6592 42.2927 55.9479 44.4868C56.2863 47.0605 53.344 48.9944 51.9444 50.8903C51.9574 54.8186 52.2023 90.6737 51.7646 91.5149C51.6084 91.813 51.4605 91.8707 51.1553 91.9826C49.3594 91.7894 49.9178 88.7639 49.919 87.3466L49.9273 79.7441C49.9356 70.961 50.0586 61.8001 49.9036 53.0457C45.5204 58.3033 43.5328 58.5448 39.178 52.9107C38.3522 51.8413 37.2496 50.6184 36.3516 49.5884C36.3469 53.2873 35.7778 57.5917 35.6134 61.374C37.1727 61.0482 38.8846 61.0215 40.4427 60.746C43.0679 60.282 46.022 61.3505 46.1214 64.4084C46.2681 68.9047 46.1214 73.5223 46.1794 78.031C46.1936 79.1668 46.1959 80.3685 46.0244 81.4948C45.4742 84.3883 41.511 85.4192 39.4229 83.4729C37.6601 81.8306 38.0754 79.1774 38.0766 76.9566L38.0624 69.2426C34.6842 69.6275 31.3024 69.9833 27.9177 70.3107C27.936 71.5206 27.9372 72.7459 27.9312 73.9582C27.8925 81.7893 28.0474 89.6346 27.8687 97.4621C27.8579 97.9299 27.6682 98.4153 27.4821 98.8394L26.9314 99.6629C24.5749 102.109 20.2979 101.073 19.89 97.6047C19.6842 95.8552 19.7852 93.7628 19.7858 91.9767L19.7909 48.7427L12.3405 39.7329C11.6902 38.9518 8.21116 34.9442 7.9943 34.2569C7.28931 31.503 6.5997 28.5641 6.14304 25.7421C5.63681 22.6149 3.42803 17.6624 6.95746 15.6781C8.55981 14.7773 11.4324 15.2815 12.1925 16.9844C13.5971 20.1308 13.788 24.1146 14.6368 27.4726C14.8287 28.235 15.1033 30.2261 15.4701 30.734C17.5213 33.5754 19.9449 36.2587 22.187 38.9751C24.9883 38.9 27.9277 38.9691 30.7352 38.9657C32.7155 38.9634 36.9526 38.5648 38.3983 39.8333C40.6521 41.8113 42.7567 44.6287 44.7325 46.9408C46.1308 45.5038 48.4449 42.4832 49.8965 41.4469C50.0279 31.3799 49.9782 20.8934 49.9013 10.8157ZM21.9287 97.7319C22.3813 98.3811 22.8442 98.8818 23.6643 99.0149C24.1468 99.0927 24.603 98.9772 24.9962 98.6898C25.5182 98.3092 25.8431 97.7496 25.9 97.1111C26.2299 93.4164 25.3954 70.1368 26.2237 68.7482C26.6151 68.5536 26.9986 68.4497 27.4289 68.375C28.8427 68.1293 38.6953 66.9953 39.3732 67.256C39.6678 67.3694 39.8227 67.5008 39.9434 67.7984C40.3811 68.8813 40.083 79.122 40.1315 81.1778C40.5764 81.8423 40.9561 82.3348 41.8008 82.4986C42.306 82.5999 42.8313 82.4785 43.2406 82.1663C44.0936 81.5219 44.1587 80.7219 44.1587 79.7417L44.1622 69.8255C44.167 68.0287 44.2486 66.1104 44.064 64.3237C43.9741 63.4578 43.3246 63.0567 42.6053 62.6847C41.0165 62.7332 34.5042 63.7931 33.7285 63.0888C33.5713 62.7035 33.505 62.3699 33.5071 61.9519C33.5147 60.4031 34.4515 47.2516 34.7572 46.6109C34.8927 46.327 35.0148 46.261 35.2928 46.1298C37.1266 46.1814 41.5216 53.1939 43.3081 54.4404C44.665 55.5435 45.6777 54.88 46.7106 53.6694C48.8649 51.1275 51.2228 48.7772 53.3239 46.1976C54.8583 44.3145 52.7158 41.6231 50.3378 43.7101C49.1441 44.7574 45.5015 50.3397 44.1752 49.2428C41.7204 47.212 39.43 42.7794 36.5303 41.1441C31.6216 40.6862 26.4072 41.2128 21.5032 41.001C19.6789 39.8424 15.5653 33.8905 13.7367 31.9196C12.9369 31.0576 11.9705 23.5312 11.5178 22.076C11.2541 21.2283 11.1261 19.4758 10.735 18.565C10.4193 17.5998 9.62622 17.2508 8.67456 17.1595C8.00116 17.3998 7.42915 17.6642 7.10996 18.3408C6.89145 18.8039 6.98527 19.3648 7.04619 19.8564C7.26944 21.6574 7.75638 23.4638 8.11083 25.2468C8.63611 27.8886 9.06024 30.5974 9.77635 33.1913C10.1222 34.4439 20.0408 45.4707 21.5272 47.7485C21.5534 47.7886 21.5816 47.8272 21.6072 47.8675C22.4205 49.1496 21.4417 92.2512 21.9287 97.7319ZM51.4061 8.85228C51.8853 8.61053 52.0817 8.02982 51.8451 7.5489C51.6096 7.06787 51.0287 6.86499 50.5425 7.09332C50.2219 7.244 50.0078 7.55479 49.9817 7.90694C49.9557 8.25897 50.1213 8.5978 50.4171 8.79361C50.7117 8.9893 51.0902 9.01181 51.4061 8.85228Z" fill="#395BF7"/>
<path d="M21.9287 97.7319C22.3813 98.3811 22.8442 98.8818 23.6643 99.0149C24.1468 99.0927 24.603 98.9772 24.9962 98.6898C25.5182 98.3092 25.8431 97.7496 25.9 97.1111C26.2299 93.4164 25.3954 70.1368 26.2237 68.7482C26.6151 68.5536 26.9986 68.4497 27.4289 68.375C28.8427 68.1293 38.6953 66.9953 39.3732 67.256C39.6678 67.3694 39.8227 67.5008 39.9434 67.7984C40.3811 68.8813 40.083 79.122 40.1315 81.1778C40.5764 81.8423 40.9561 82.3348 41.8008 82.4986C42.306 82.5999 42.8313 82.4785 43.2406 82.1663C44.0936 81.5219 44.1587 80.7219 44.1587 79.7417L44.1622 69.8255C44.167 68.0287 44.2486 66.1104 44.064 64.3237C43.9741 63.4578 43.3246 63.0567 42.6053 62.6847C41.0165 62.7332 34.5042 63.7931 33.7285 63.0888C33.5713 62.7035 33.505 62.3699 33.5071 61.9519C33.5147 60.4031 34.4515 47.2516 34.7572 46.6109C34.8927 46.327 35.0148 46.261 35.2928 46.1298C37.1266 46.1814 41.5216 53.1939 43.3081 54.4404C44.665 55.5435 45.6777 54.88 46.7106 53.6694C48.8649 51.1275 51.2228 48.7772 53.3239 46.1976C54.8583 44.3145 52.7158 41.6231 50.3378 43.7101C49.1441 44.7574 45.5015 50.3397 44.1752 49.2428C41.7204 47.212 39.43 42.7794 36.5303 41.1441C31.6216 40.6862 26.4072 41.2128 21.5032 41.001C19.6789 39.8424 15.5653 33.8905 13.7367 31.9196C12.9369 31.0576 11.9705 23.5312 11.5178 22.076C11.2541 21.2283 11.1261 19.4758 10.735 18.565C10.4193 17.5998 9.62622 17.2508 8.67456 17.1595C8.00116 17.3998 7.42915 17.6642 7.10996 18.3408C6.89145 18.8039 6.98527 19.3648 7.04619 19.8564C7.26944 21.6574 7.75638 23.4638 8.11083 25.2468C8.63611 27.8886 9.06024 30.5974 9.77635 33.1913C10.1222 34.4439 20.0408 45.4707 21.5272 47.7485C21.5534 47.7886 21.5816 47.8272 21.6072 47.8675C22.4205 49.1496 21.4417 92.2512 21.9287 97.7319Z" fill="white"/>
<path d="M51.4061 8.85228C51.8853 8.61053 52.0817 8.02982 51.8451 7.5489C51.6096 7.06787 51.0287 6.86499 50.5425 7.09332C50.2219 7.244 50.0078 7.55479 49.9817 7.90694C49.9557 8.25897 50.1213 8.5978 50.4171 8.79361C50.7117 8.9893 51.0902 9.01181 51.4061 8.85228Z" fill="white"/>
<path d="M73.8406 9.30997C76.0233 9.2209 81.0892 10.5326 81.9954 12.594C82.0262 13.9649 78.4309 18.3176 77.4264 19.8772C78.2972 22.1041 79.3241 24.2723 80.2256 26.5019C80.6101 27.4499 82.0487 30.0096 81.5364 30.9117C80.9898 31.8765 78.5492 30.3972 77.7246 30.0571C77.1106 29.8084 76.4753 29.6138 75.8281 29.4756C72.6812 28.8042 68.9285 30.3154 65.8963 31.3027C61.8467 32.5935 57.3297 32.8726 53.7344 30.2102C53.5167 27.8118 53.6705 25.0593 53.6528 22.6229C53.6267 19.0717 53.6528 15.5191 53.6528 11.9661C53.6528 11.6025 53.7332 10.7437 54.4005 10.6569C55.2049 10.8399 57.1665 11.6438 57.9106 11.8526C58.8097 12.0995 59.7384 12.2209 60.6707 12.2134C64.7156 12.2065 69.0835 9.58707 73.8406 9.30997ZM55.6415 13.2606C55.9124 18.3152 55.6226 23.91 55.7255 29.0271C58.8854 30.5671 61.461 30.5364 64.8268 29.5084C70.0086 27.9875 73.3662 26.2243 78.7077 28.2162C78.0251 26.5444 77.32 24.8815 76.5947 23.2278C75.2898 20.2486 74.5847 20.01 76.7746 17.1967C77.7482 15.9468 78.7952 14.3938 79.7961 13.1059C77.85 11.9335 75.989 11.207 73.6726 11.31C67.4544 11.9054 62.146 16.1451 55.6415 13.2606Z" fill="#395BF7"/>
<path d="M55.6415 13.2606C55.9124 18.3152 55.6226 23.91 55.7255 29.0271C58.8854 30.5671 61.461 30.5364 64.8268 29.5084C70.0086 27.9875 73.3662 26.2243 78.7077 28.2162C78.0251 26.5444 77.32 24.8815 76.5947 23.2278C75.2898 20.2486 74.5847 20.01 76.7746 17.1967C77.7482 15.9468 78.7952 14.3938 79.7961 13.1059C77.85 11.9335 75.989 11.207 73.6726 11.31C67.4544 11.9054 62.146 16.1451 55.6415 13.2606Z" fill="white"/>
<path d="M28.021 22.4104C32.3012 21.8323 36.2416 24.8188 36.8225 29.0813C37.4034 33.3435 34.4041 37.2677 30.124 37.8462C25.8435 38.4247 21.9028 35.438 21.322 31.1755C20.7412 26.9129 23.7405 22.9885 28.021 22.4104ZM30.1182 35.794C33.242 35.2155 35.3117 32.2361 34.7547 29.1211C34.1973 26.0062 31.2208 23.9223 28.0888 24.4541C24.9235 24.9917 22.8038 27.9941 23.3672 31.1421C23.9305 34.2902 26.9613 36.3785 30.1182 35.794Z" fill="#395BF7"/>
<path d="M30.1182 35.794C33.242 35.2155 35.3117 32.2361 34.7547 29.1211C34.1973 26.0062 31.2208 23.9223 28.0888 24.4541C24.9235 24.9917 22.8038 27.9941 23.3672 31.1421C23.9305 34.2902 26.9613 36.3785 30.1182 35.794Z" fill="white"/>
<path d="M49.9013 10.8157C46.4728 9.02205 47.8877 4.51931 51.3801 5.04323C52.2118 5.16587 52.9548 5.62806 53.4303 6.31892C54.7211 8.17014 53.6551 9.86572 51.9491 10.8873L51.9622 40.8535C54.0124 41.1124 55.6592 42.2927 55.9479 44.4868C56.2863 47.0605 53.344 48.9944 51.9444 50.8903C51.9574 54.8186 52.2023 90.6737 51.7646 91.5149C51.6084 91.813 51.4605 91.8707 51.1553 91.9826C49.3594 91.7894 49.9178 88.7639 49.919 87.3466L49.9273 79.7441C49.9356 70.961 50.0586 61.8001 49.9036 53.0457C45.5204 58.3033 43.5328 58.5448 39.178 52.9107C38.3522 51.8413 37.2496 50.6184 36.3516 49.5884C36.3469 53.2873 35.7778 57.5917 35.6134 61.374C37.1727 61.0482 38.8846 61.0215 40.4427 60.746C43.0679 60.282 46.022 61.3505 46.1214 64.4084C46.2681 68.9047 46.1214 73.5223 46.1794 78.031C46.1936 79.1668 46.1959 80.3685 46.0244 81.4948C45.4742 84.3883 41.511 85.4192 39.4229 83.4729C37.6601 81.8306 38.0754 79.1774 38.0766 76.9566L38.0624 69.2426C34.6842 69.6275 31.3024 69.9833 27.9177 70.3107C27.936 71.5206 27.9372 72.7459 27.9312 73.9582C27.8925 81.7893 28.0474 89.6346 27.8687 97.4621C27.8579 97.9299 27.6682 98.4153 27.4821 98.8394L26.9314 99.6629C24.5749 102.109 20.2979 101.073 19.89 97.6047C19.6842 95.8552 19.7852 93.7628 19.7858 91.9767L19.7909 48.7427L12.3405 39.7329C11.6902 38.9518 8.21116 34.9442 7.9943 34.2569C7.28931 31.503 6.5997 28.5641 6.14304 25.7421C5.63681 22.6149 3.42803 17.6624 6.95746 15.6781C8.55981 14.7773 11.4324 15.2815 12.1925 16.9844C13.5971 20.1308 13.788 24.1146 14.6368 27.4726C14.8287 28.235 15.1033 30.2261 15.4701 30.734C17.5213 33.5754 19.9449 36.2587 22.187 38.9751C24.9883 38.9 27.9277 38.9691 30.7352 38.9657C32.7155 38.9634 36.9526 38.5648 38.3983 39.8333C40.6521 41.8113 42.7567 44.6287 44.7325 46.9408C46.1308 45.5038 48.4449 42.4832 49.8965 41.4469C50.0279 31.3799 49.9782 20.8934 49.9013 10.8157ZM21.9287 97.7319C22.3813 98.3811 22.8442 98.8818 23.6643 99.0149C24.1468 99.0927 24.603 98.9772 24.9962 98.6898C25.5182 98.3092 25.8431 97.7496 25.9 97.1111C26.2299 93.4164 25.3954 70.1368 26.2237 68.7482C26.6151 68.5536 26.9986 68.4497 27.4289 68.375C28.8427 68.1293 38.6953 66.9953 39.3732 67.256C39.6678 67.3694 39.8227 67.5008 39.9434 67.7984C40.3811 68.8813 40.083 79.122 40.1315 81.1778C40.5764 81.8423 40.9561 82.3348 41.8008 82.4986C42.306 82.5999 42.8313 82.4785 43.2406 82.1663C44.0936 81.5219 44.1587 80.7219 44.1587 79.7417L44.1622 69.8255C44.167 68.0287 44.2486 66.1104 44.064 64.3237C43.9741 63.4578 43.3246 63.0567 42.6053 62.6847C41.0165 62.7332 34.5042 63.7931 33.7285 63.0888C33.5713 62.7035 33.505 62.3699 33.5071 61.9519C33.5147 60.4031 34.4515 47.2516 34.7572 46.6109C34.8927 46.327 35.0148 46.261 35.2928 46.1298C37.1266 46.1814 41.5216 53.1939 43.3081 54.4404C44.665 55.5435 45.6777 54.88 46.7106 53.6694C48.8649 51.1275 51.2228 48.7772 53.3239 46.1976C54.8583 44.3145 52.7158 41.6231 50.3378 43.7101C49.1441 44.7574 45.5015 50.3397 44.1752 49.2428C41.7204 47.212 39.43 42.7794 36.5303 41.1441C31.6216 40.6862 26.4072 41.2128 21.5032 41.001C19.6789 39.8424 15.5653 33.8905 13.7367 31.9196C12.9369 31.0576 11.9705 23.5312 11.5178 22.076C11.2541 21.2283 11.1261 19.4758 10.735 18.565C10.4193 17.5998 9.62622 17.2508 8.67456 17.1595C8.00116 17.3998 7.42915 17.6642 7.10996 18.3408C6.89145 18.8039 6.98527 19.3648 7.04619 19.8564C7.26944 21.6574 7.75638 23.4638 8.11083 25.2468C8.63611 27.8886 9.06024 30.5974 9.77635 33.1913C10.1222 34.4439 20.0408 45.4707 21.5272 47.7485C21.5534 47.7886 21.5816 47.8272 21.6072 47.8675C22.4205 49.1496 21.4417 92.2512 21.9287 97.7319ZM51.4061 8.85228C51.8853 8.61053 52.0817 8.02982 51.8451 7.5489C51.6096 7.06787 51.0287 6.86499 50.5425 7.09332C50.2219 7.244 50.0078 7.55479 49.9817 7.90694C49.9557 8.25897 50.1213 8.5978 50.4171 8.79361C50.7117 8.9893 51.0902 9.01181 51.4061 8.85228Z" stroke="var(--stroke-0, white)" stroke-width="10" mask="url(#path-1-outside-1_0_4)"/>
<path d="M21.9287 97.7319C22.3813 98.3811 22.8442 98.8818 23.6643 99.0149C24.1468 99.0927 24.603 98.9772 24.9962 98.6898C25.5182 98.3092 25.8431 97.7496 25.9 97.1111C26.2299 93.4164 25.3954 70.1368 26.2237 68.7482C26.6151 68.5536 26.9986 68.4497 27.4289 68.375C28.8427 68.1293 38.6953 66.9953 39.3732 67.256C39.6678 67.3694 39.8227 67.5008 39.9434 67.7984C40.3811 68.8813 40.083 79.122 40.1315 81.1778C40.5764 81.8423 40.9561 82.3348 41.8008 82.4986C42.306 82.5999 42.8313 82.4785 43.2406 82.1663C44.0936 81.5219 44.1587 80.7219 44.1587 79.7417L44.1622 69.8255C44.167 68.0287 44.2486 66.1104 44.064 64.3237C43.9741 63.4578 43.3246 63.0567 42.6053 62.6847C41.0165 62.7332 34.5042 63.7931 33.7285 63.0888C33.5713 62.7035 33.505 62.3699 33.5071 61.9519C33.5147 60.4031 34.4515 47.2516 34.7572 46.6109C34.8927 46.327 35.0148 46.261 35.2928 46.1298C37.1266 46.1814 41.5216 53.1939 43.3081 54.4404C44.665 55.5435 45.6777 54.88 46.7106 53.6694C48.8649 51.1275 51.2228 48.7772 53.3239 46.1976C54.8583 44.3145 52.7158 41.6231 50.3378 43.7101C49.1441 44.7574 45.5015 50.3397 44.1752 49.2428C41.7204 47.212 39.43 42.7794 36.5303 41.1441C31.6216 40.6862 26.4072 41.2128 21.5032 41.001C19.6789 39.8424 15.5653 33.8905 13.7367 31.9196C12.9369 31.0576 11.9705 23.5312 11.5178 22.076C11.2541 21.2283 11.1261 19.4758 10.735 18.565C10.4193 17.5998 9.62622 17.2508 8.67456 17.1595C8.00116 17.3998 7.42915 17.6642 7.10996 18.3408C6.89145 18.8039 6.98527 19.3648 7.04619 19.8564C7.26944 21.6574 7.75638 23.4638 8.11083 25.2468C8.63611 27.8886 9.06024 30.5974 9.77635 33.1913C10.1222 34.4439 20.0408 45.4707 21.5272 47.7485C21.5534 47.7886 21.5816 47.8272 21.6072 47.8675C22.4205 49.1496 21.4417 92.2512 21.9287 97.7319Z" stroke="var(--stroke-0, white)" stroke-width="10" mask="url(#path-1-outside-1_0_4)"/>
<path d="M51.4061 8.85228C51.8853 8.61053 52.0817 8.02982 51.8451 7.5489C51.6096 7.06787 51.0287 6.86499 50.5425 7.09332C50.2219 7.244 50.0078 7.55479 49.9817 7.90694C49.9557 8.25897 50.1213 8.5978 50.4171 8.79361C50.7117 8.9893 51.0902 9.01181 51.4061 8.85228Z" stroke="var(--stroke-0, white)" stroke-width="10" mask="url(#path-1-outside-1_0_4)"/>
<path d="M73.8406 9.30997C76.0233 9.2209 81.0892 10.5326 81.9954 12.594C82.0262 13.9649 78.4309 18.3176 77.4264 19.8772C78.2972 22.1041 79.3241 24.2723 80.2256 26.5019C80.6101 27.4499 82.0487 30.0096 81.5364 30.9117C80.9898 31.8765 78.5492 30.3972 77.7246 30.0571C77.1106 29.8084 76.4753 29.6138 75.8281 29.4756C72.6812 28.8042 68.9285 30.3154 65.8963 31.3027C61.8467 32.5935 57.3297 32.8726 53.7344 30.2102C53.5167 27.8118 53.6705 25.0593 53.6528 22.6229C53.6267 19.0717 53.6528 15.5191 53.6528 11.9661C53.6528 11.6025 53.7332 10.7437 54.4005 10.6569C55.2049 10.8399 57.1665 11.6438 57.9106 11.8526C58.8097 12.0995 59.7384 12.2209 60.6707 12.2134C64.7156 12.2065 69.0835 9.58707 73.8406 9.30997ZM55.6415 13.2606C55.9124 18.3152 55.6226 23.91 55.7255 29.0271C58.8854 30.5671 61.461 30.5364 64.8268 29.5084C70.0086 27.9875 73.3662 26.2243 78.7077 28.2162C78.0251 26.5444 77.32 24.8815 76.5947 23.2278C75.2898 20.2486 74.5847 20.01 76.7746 17.1967C77.7482 15.9468 78.7952 14.3938 79.7961 13.1059C77.85 11.9335 75.989 11.207 73.6726 11.31C67.4544 11.9054 62.146 16.1451 55.6415 13.2606Z" stroke="var(--stroke-0, white)" stroke-width="10" mask="url(#path-1-outside-1_0_4)"/>
<path d="M55.6415 13.2606C55.9124 18.3152 55.6226 23.91 55.7255 29.0271C58.8854 30.5671 61.461 30.5364 64.8268 29.5084C70.0086 27.9875 73.3662 26.2243 78.7077 28.2162C78.0251 26.5444 77.32 24.8815 76.5947 23.2278C75.2898 20.2486 74.5847 20.01 76.7746 17.1967C77.7482 15.9468 78.7952 14.3938 79.7961 13.1059C77.85 11.9335 75.989 11.207 73.6726 11.31C67.4544 11.9054 62.146 16.1451 55.6415 13.2606Z" stroke="var(--stroke-0, white)" stroke-width="10" mask="url(#path-1-outside-1_0_4)"/>
<path d="M28.021 22.4104C32.3012 21.8323 36.2416 24.8188 36.8225 29.0813C37.4034 33.3435 34.4041 37.2677 30.124 37.8462C25.8435 38.4247 21.9028 35.438 21.322 31.1755C20.7412 26.9129 23.7405 22.9885 28.021 22.4104ZM30.1182 35.794C33.242 35.2155 35.3117 32.2361 34.7547 29.1211C34.1973 26.0062 31.2208 23.9223 28.0888 24.4541C24.9235 24.9917 22.8038 27.9941 23.3672 31.1421C23.9305 34.2902 26.9613 36.3785 30.1182 35.794Z" stroke="var(--stroke-0, white)" stroke-width="10" mask="url(#path-1-outside-1_0_4)"/>
<path d="M30.1182 35.794C33.242 35.2155 35.3117 32.2361 34.7547 29.1211C34.1973 26.0062 31.2208 23.9223 28.0888 24.4541C24.9235 24.9917 22.8038 27.9941 23.3672 31.1421C23.9305 34.2902 26.9613 36.3785 30.1182 35.794Z" stroke="var(--stroke-0, white)" stroke-width="10" mask="url(#path-1-outside-1_0_4)"/>
</g>
</svg>
