<svg preserveAspectRatio="none" width="100%" height="100%" overflow="visible" style="display: block;" viewBox="0 0 390 315" fill="none" xmlns="http://www.w3.org/2000/svg">
<g id="Rectangle 60">
<path d="M374 0C382.837 0 390 7.16344 390 16V45V90V299C390 307.837 382.837 315 374 315H16C7.16344 315 0 307.837 0 299V61C0 52.1634 7.16344 45 16 45H300.344C309.18 45 316.344 37.8366 316.344 29V16C316.344 7.16344 323.507 0 332.344 0H374Z" fill="var(--fill-0, #252525)" fill-opacity="0.4"/>
<path d="M332.344 1H374C382.284 1 389 7.71573 389 16V299C389 307.284 382.284 314 374 314H16C7.71573 314 1 307.284 1 299V61C1 52.7157 7.71573 46 16 46H300.344C309.733 46 317.344 38.3888 317.344 29V16C317.344 7.71576 324.06 1.00004 332.344 1Z" stroke="var(--stroke-0, white)" stroke-opacity="0.1" stroke-width="2"/>
</g>
</svg>
