<svg width="28" height="28" viewBox="0 0 28 28" fill="none" xmlns="http://www.w3.org/2000/svg">
<path d="M17.4998 2.33301H6.99984C6.381 2.33301 5.78751 2.57884 5.34992 3.01643C4.91234 3.45401 4.6665 4.0475 4.6665 4.66634V23.333C4.6665 23.9518 4.91234 24.5453 5.34992 24.9829C5.78751 25.4205 6.381 25.6663 6.99984 25.6663H20.9998C21.6187 25.6663 22.2122 25.4205 22.6498 24.9829C23.0873 24.5453 23.3332 23.9518 23.3332 23.333V8.16634L17.4998 2.33301Z" stroke="#F59E0B" stroke-width="2.33333" stroke-linecap="round" stroke-linejoin="round"/>
<path d="M16.3335 2.33301V6.99967C16.3335 7.61851 16.5793 8.21201 17.0169 8.64959C17.4545 9.08718 18.048 9.33301 18.6668 9.33301H23.3335" stroke="#F59E0B" stroke-width="2.33333" stroke-linecap="round" stroke-linejoin="round"/>
<path d="M11.6668 10.5H9.3335" stroke="#F59E0B" stroke-width="2.33333" stroke-linecap="round" stroke-linejoin="round"/>
<path d="M18.6668 15.167H9.3335" stroke="#F59E0B" stroke-width="2.33333" stroke-linecap="round" stroke-linejoin="round"/>
<path d="M18.6668 19.833H9.3335" stroke="#F59E0B" stroke-width="2.33333" stroke-linecap="round" stroke-linejoin="round"/>
</svg>
