<svg preserveAspectRatio="none" width="100%" height="100%" overflow="visible" style="display: block;" viewBox="0 0 113.371 60.1897" fill="none" xmlns="http://www.w3.org/2000/svg">
<g id="Vector" filter="url(#filter0_di_0_6)">
<path d="M1.64903 0.0139791L77.3802 0.0161084L98.7302 0.016489C102.635 0.0166411 107.821 -0.030661 111.722 0.0342836C111.669 1.5582 111.701 3.24653 111.701 4.78307L111.711 12.7811L105.875 12.7803C105.889 10.3299 105.888 7.87942 105.875 5.42902L7.46924 5.42856L7.47786 51.4787L9.89122 51.4798L105.885 51.4768L105.875 46.8646C107.427 46.8534 110.171 46.8584 111.722 46.8797C111.606 49.9199 111.692 53.8 111.712 56.8916L1.6533 56.8908L1.64903 0.0139791Z" fill="url(#paint0_linear_0_6)"/>
</g>
<defs>
<filter id="filter0_di_0_6" x="0" y="0" width="113.371" height="60.1897" filterUnits="userSpaceOnUse" color-interpolation-filters="sRGB">
<feFlood flood-opacity="0" result="BackgroundImageFix"/>
<feColorMatrix in="SourceAlpha" type="matrix" values="0 0 0 0 0 0 0 0 0 0 0 0 0 0 0 0 0 0 127 0" result="hardAlpha"/>
<feOffset dy="1.64903"/>
<feGaussianBlur stdDeviation="0.824516"/>
<feComposite in2="hardAlpha" operator="out"/>
<feColorMatrix type="matrix" values="0 0 0 0 0 0 0 0 0 0.0947996 0 0 0 0 0.576923 0 0 0 0.4 0"/>
<feBlend mode="normal" in2="BackgroundImageFix" result="effect1_dropShadow_0_6"/>
<feBlend mode="normal" in="SourceGraphic" in2="effect1_dropShadow_0_6" result="shape"/>
<feColorMatrix in="SourceAlpha" type="matrix" values="0 0 0 0 0 0 0 0 0 0 0 0 0 0 0 0 0 0 127 0" result="hardAlpha"/>
<feOffset dy="-0.824516"/>
<feComposite in2="hardAlpha" operator="arithmetic" k2="-1" k3="1"/>
<feColorMatrix type="matrix" values="0 0 0 0 0 0 0 0 0 0.0348558 0 0 0 0 0.697115 0 0 0 0.25 0"/>
<feBlend mode="normal" in2="shape" result="effect2_innerShadow_0_6"/>
</filter>
<linearGradient id="paint0_linear_0_6" x1="56.6855" y1="3.41553e-10" x2="56.6855" y2="56.8916" gradientUnits="userSpaceOnUse">
<stop offset="0.341346" stop-color="white"/>
<stop offset="1" stop-color="#E3E3E3"/>
</linearGradient>
</defs>
</svg>
