<svg preserveAspectRatio="none" width="100%" height="100%" overflow="visible" style="display: block;" viewBox="0 0 139.113 78.4425" fill="none" xmlns="http://www.w3.org/2000/svg">
<path id="Vector" d="M136.558 42.0665C136.557 42.8731 136.562 44.3377 136.568 45.6075C136.572 46.2407 136.575 46.823 136.577 47.2472C136.578 47.459 136.579 47.6317 136.58 47.7511C136.58 47.8106 136.581 47.8573 136.581 47.8888C136.581 47.9045 136.581 47.9168 136.581 47.9249C136.581 47.9287 136.582 47.9317 136.582 47.9337V47.9366L136.597 50.4386L134.096 50.4522L128.13 50.4845C128.132 51.5034 128.136 52.6081 128.136 53.3399L128.134 64.9425C128.135 66.3427 128.127 68.4627 128.118 70.2286C128.114 71.1128 128.11 71.9105 128.106 72.4864C128.105 72.774 128.103 73.0064 128.103 73.1671C128.102 73.2475 128.102 73.3103 128.102 73.3526V73.4171L128.086 75.879L125.624 75.9024H125.573C125.54 75.9027 125.49 75.9028 125.427 75.9034C125.3 75.9046 125.116 75.9063 124.891 75.9083C124.439 75.9122 123.818 75.9178 123.137 75.9229C121.779 75.9332 120.172 75.9423 119.214 75.9415H119.213L107.428 75.9376V75.9366H70.6426L27.3604 75.9376L13.2432 75.9386C11.9003 75.9388 9.8411 75.9247 8.125 75.9102C7.26555 75.903 6.48905 75.8952 5.92774 75.8897C5.64707 75.887 5.41959 75.8855 5.2627 75.8839C5.18431 75.8831 5.12337 75.8824 5.08203 75.8819C5.06155 75.8817 5.04578 75.8811 5.03516 75.881H5.01856L2.52637 75.8546L2.54492 73.3634V73.3116C2.54516 73.2781 2.54643 73.2284 2.54688 73.1651C2.54778 73.0381 2.54827 72.8544 2.54981 72.629C2.55289 72.1777 2.55741 71.5578 2.56152 70.8829C2.56977 69.5296 2.57812 67.9645 2.57813 67.0909V55.1505L2.5752 17.8653L2.57422 8.77939V8.77841C2.57421 8.54298 2.56683 7.62303 2.55957 6.74326C2.55598 6.30735 2.5525 5.88684 2.54981 5.57529C2.54846 5.41952 2.54669 5.29081 2.5459 5.20126C2.54551 5.15657 2.54513 5.12155 2.54492 5.09775V5.06161L2.52246 2.51962L5.06445 2.53915H5.08594C5.10028 2.53926 5.12155 2.53996 5.14746 2.54013C5.19935 2.54046 5.27101 2.54077 5.34961 2.54111H5.81445L125.614 2.54501H128.112L128.114 5.04306L128.127 29.7364C128.35 29.7374 128.583 29.7392 128.821 29.7403C130.584 29.7487 132.696 29.7607 134.081 29.7735L136.559 29.796L136.558 32.2735V42.0665Z" fill="url(#paint0_linear_0_7)" stroke="var(--stroke-0, white)" stroke-width="5"/>
<defs>
<linearGradient id="paint0_linear_0_7" x1="69.5633" y1="5.03915" x2="69.5633" y2="73.474" gradientUnits="userSpaceOnUse">
<stop stop-color="#2A4DFF"/>
<stop offset="1" stop-color="#001CAA"/>
</linearGradient>
</defs>
</svg>
